<?xml version="1.0" encoding="utf-8"?>
<!-- Svg Vector Icons : http://www.onlinewebfonts.com/icon -->
<!DOCTYPE svg PUBLIC "-//W3C//DTD SVG 1.1//EN" "http://www.w3.org/Graphics/SVG/1.1/DTD/svg11.dtd">
<svg version="1.1" xmlns="http://www.w3.org/2000/svg" xmlns:xlink="http://www.w3.org/1999/xlink" x="0px" y="0px" viewBox="0 0 1000 1000" enable-background="new 0 0 1000 1000" xml:space="preserve">
<metadata> Svg Vector Icons : http://www.onlinewebfonts.com/icon </metadata>
<g><g transform="matrix(1 0 0 -1 0 1920)"><path d="M349.2,950.7c-30.7,0-60.7,4.1-90.1,12.3c-29.4,8.2-56.5,19.5-81.2,34.1c-24.8,14.6-47.6,32.3-68.4,53.1c-20.9,20.9-38.6,43.7-53.1,68.4c-14.6,24.8-25.9,51.8-34.1,81.2S10,1259.3,10,1290c0,28.6,4.2,57.1,12.6,85.4c8.4,28.3,19.9,54.2,34.5,77.8c14.6,23.6,31.5,45.7,50.7,66.1c19.2,20.5,39.7,38.3,61.4,53.3c21.7,15.1,44,27.4,66.9,36.9v91.2h94.2c0,37.7,9.1,69.5,27.3,95.5c18.2,26,42.7,42.2,73.3,48.4c8.8,1.8,17.5,2.6,26,2.6c28.4,0,54.8-8.7,79.3-26.2s43.3-41.3,56.3-71.4c13.3-30.9,31.7-49.6,55-56.2c6.5-1.8,13.6-2.6,21.1-2.6c15.3,0,32.3,3.8,50.9,11.3l-65.2,19.2l98,29l-49,89.7l89.7-49l29,98l28.6-98l90.1,49l-49-89.7l98-29l-98-28.6l49-90.1l-90.1,49l-28.6-98l-29,98l-89.7-49l36.9,67.1c-25.4-11.3-49.3-17-71.6-17c-11.6,0-22,1.3-31.3,3.8c-35.2,10.1-61.7,35.8-79.5,77.3c-10.8,25.4-25.4,44.4-43.9,56.9c-18.5,12.6-37.6,18.8-57.5,18.8c-6.3,0-12.2-0.6-17.7-1.9c-9.5-1.8-18.2-4.8-25.8-9.2c-7.7-4.4-15.1-10.6-22.2-18.5c-7.2-7.9-12.8-18.6-16.8-32s-6-29.2-6-47.3h94.2v-91.2c36.9-11.6,69.9-27.8,98.8-48.8c28.9-21,52.6-45.4,71-73.3c18.5-27.9,32.5-58.5,42-91.8c9.5-33.3,14.3-68.5,14.3-105.7c0-30.7-4.1-60.7-12.3-90.1c-8.2-29.4-19.5-56.5-34.1-81.2c-14.6-24.8-32.3-47.6-53.1-68.4c-20.9-20.9-43.7-38.6-68.4-53.1c-24.8-14.6-51.8-25.9-81.2-34.1C409.9,954.8,379.9,950.7,349.2,950.7z"/></g></g>
</svg>